<svg xmlns="http://www.w3.org/2000/svg" viewBox="0 0 24 24" fill="currentColor">
  <path d="M4.459 4.208c.746-.386 1.09-.581 1.764-.581.564 0 1.025.26 1.58.555.518.275 1.127.604 1.77.604.53 0 1.104-.32 1.637-.625.568-.328 1.177-.678 1.838-.678.857 0 1.487.35 2.115.688.54.29 1.066.573 1.554.573.551 0 1.11-.274 1.611-.535.534-.28 1.053-.553 1.579-.553.844 0 1.341.282 2.06.69.757.432 1.55.882 1.55 2.015v13.682c0 .927-.61 1.402-1.353 1.956l-.014.01c-.551.411-1.12.836-1.552.836-.612 0-1.18-.326-1.748-.65-.558-.32-1.12-.64-1.636-.64-.551 0-1.107.311-1.64.613-.566.323-1.168.665-1.802.665-.79 0-1.428-.352-2.072-.705-.53-.292-1.045-.575-1.55-.575-.544 0-1.077.291-1.611.58-.553.297-1.096.59-1.666.59-1.047 0-1.579-.472-2.316-1.139-.757-.685-1.58-1.43-1.58-2.61V5.792c0-1.16.825-1.585 1.57-1.97.288-.148.583-.301.895-.45ZM5.454 5.992c-.173.08-.344.156-.496.225-.436.195-.53.301-.53.64v13.06c0 .546.331.845.86 1.324.475.43.91.823 1.35 1.076.24.137.498.283.743.283.255 0 .584-.187.923-.377.587-.33 1.258-.707 1.916-.707.72 0 1.242.283 1.761.565.576.313 1.157.628 1.838.628.326 0 .69-.204 1.066-.417.583-.33 1.196-.677 1.836-.677.345 0 .734.223 1.12.448.563.327 1.125.654 1.632.654.168 0 .445-.164.717-.354.341-.24.694-.486 1.018-.682.356-.216.594-.36.594-.65V5.718c0-.62-.236-.788-.705-1.056l-.01-.006c-.461-.264-.94-.536-1.32-.536-.316 0-.66.17-.999.345-.58.303-1.197.625-1.874.625-.66 0-1.226-.307-1.787-.61-.555-.297-1.106-.593-1.765-.593-.574 0-1.116.31-1.666.626-.554.32-1.115.642-1.737.642-.366 0-.756-.2-1.156-.412C10.15 4.382 9.574 4.07 8.81 4.07c-.452 0-1.042.274-1.636.56l-.004.001c-.604.292-1.22.59-1.65.651-.253.036-.505.101-.76.216Zm11.892 12.164c.264 0 .49-.24.49-.5v-9.61c0-.26-.226-.505-.49-.505-.27 0-.495.244-.495.505v9.61c0 .26.225.5.495.5Zm-4.992 0c.26 0 .486-.24.486-.5v-9.61c0-.26-.226-.505-.486-.505-.27 0-.494.244-.494.505v9.61c0 .26.224.5.494.5Zm-5.002 0c.265 0 .49-.24.49-.5v-9.61c0-.26-.225-.505-.49-.505-.265 0-.49.244-.49.505v9.61c0 .26.225.5.49.5Z"/>
</svg>
