<svg width="108" height="31" viewBox="0 0 108 31" fill="none" xmlns="http://www.w3.org/2000/svg">
<path d="M62.28 21.0996V21.1035L66.6267 8.77051H70.2234L62.9666 27.2539C62.592 28.2123 62.2473 28.9456 61.9353 29.4551C61.6232 29.9644 61.2352 30.3492 60.7781 30.6094C60.3211 30.8695 59.7042 30.999 58.9333 30.999H55.3064V28.0322H57.6833C58.3294 28.0322 58.7776 27.9333 59.0291 27.7354C59.2805 27.5374 59.5398 27.0961 59.8113 26.4092L60.4685 24.8789L54.2117 8.7666H57.8083L62.28 21.0996ZM83.8035 8.58301C85.4098 8.58301 86.8329 8.9251 88.074 9.6123C89.3149 10.2995 90.2735 11.2622 90.9509 12.501C91.6281 13.7396 91.9675 15.1597 91.9675 16.7627C91.9675 18.366 91.6282 19.8179 90.9509 21.0566C90.2735 22.2955 89.313 23.2526 88.074 23.9307C86.8329 24.6069 85.4097 24.9453 83.8035 24.9453C82.1974 24.9453 80.7748 24.6068 79.5339 23.9307C78.293 23.2545 77.3344 22.2955 76.657 21.0566C75.9797 19.8179 75.6404 18.3863 75.6404 16.7627C75.6404 15.1394 75.9798 13.7396 76.657 12.501C77.3344 11.2622 78.2949 10.2995 79.5339 9.6123C80.7749 8.92519 82.1974 8.58307 83.8035 8.58301ZM101.477 8.58301C103.375 8.58301 104.923 9.16556 106.122 10.3311C107.32 11.4965 107.921 13.3692 107.921 15.9512H107.92V24.7568H104.51V16.1406C104.51 14.6213 104.187 13.4646 103.541 12.6748C102.895 11.8832 101.945 11.4893 100.695 11.4893C99.3608 11.4894 98.3124 11.9526 97.5525 12.8779C96.7906 13.8033 96.4109 15.0794 96.4109 16.7031V24.7588H93.033V8.76953H95.9744L96.3484 10.8623C97.5582 9.34323 99.2671 8.58308 101.477 8.58301ZM45.7712 2.90137C47.2728 2.90137 48.5966 3.18716 49.7439 3.76074V3.75879C50.8912 4.33054 51.7761 5.14251 52.4021 6.19434C53.028 7.24616 53.3396 8.46883 53.3396 9.86328C53.3395 11.2575 53.0279 12.4796 52.4021 13.5312C51.7761 14.5831 50.8893 15.395 49.7439 15.9668C48.5984 16.5386 47.2728 16.8262 45.7712 16.8262H40.7361V24.7578H37.1394V2.90137H45.7712ZM74.5691 24.7578H71.1912V2.90137H74.5691V24.7578ZM83.8035 11.4561C82.3847 11.4562 81.2506 11.951 80.3953 12.9385C79.5398 13.9261 79.1121 15.2015 79.1121 16.7627C79.1121 18.3241 79.5397 19.6002 80.3953 20.5879C81.2506 21.5771 82.3866 22.0702 83.8035 22.0703C85.2206 22.0703 86.3628 21.5755 87.2292 20.5879C88.0939 19.6002 88.5271 18.3241 88.5271 16.7627C88.527 15.2015 88.0938 13.9261 87.2292 12.9385C86.3645 11.949 85.2224 11.4561 83.8035 11.4561ZM40.7361 13.7041H45.4587C46.7511 13.7041 47.7797 13.3554 48.5398 12.6572C49.3013 11.961 49.6813 11.0285 49.6814 9.86328C49.6814 8.69791 49.307 7.74091 48.5564 7.05371C47.8055 6.3665 46.7842 6.02344 45.49 6.02344H40.7361V13.7041Z" fill="white"/>
<path d="M23.6317 4.04813C21.0176 1.43673 17.5407 0 13.8416 0C10.1425 0 6.66563 1.43673 4.05335 4.04631C1.43923 6.65588 0 10.1249 0 13.8176C0 17.5102 1.43923 20.9792 4.05335 23.5888C6.66746 26.1984 10.1444 27.637 13.8434 27.637C17.5424 27.637 21.0194 26.2002 23.6336 23.5906C26.2477 20.9811 27.6869 17.512 27.6869 13.8194C27.6869 10.1268 26.2477 6.65771 23.6336 4.04813H23.6317ZM24.7956 13.8194C24.7956 19.2951 20.7128 23.9406 15.2863 24.6572V2.97792C20.7128 3.69445 24.7956 8.34185 24.7956 13.8176V13.8194ZM5.34389 6.9271C7.12273 4.74268 9.61936 3.34443 12.3987 2.97792V6.9271H5.34389ZM12.3987 9.81156V12.39H2.9831C3.09876 11.5067 3.32455 10.6398 3.65131 9.81156H12.3987ZM12.3987 15.2726V17.851H3.66233C3.3319 17.0227 3.10426 16.1559 2.98677 15.2726H12.3987ZM12.3987 20.7355V24.6572C9.63404 24.2925 7.14477 22.9034 5.36775 20.7355H12.3987Z" fill="white"/>
</svg>
